<svg xmlns="http://www.w3.org/2000/svg" version="1.1" xmlns:xlink="http://www.w3.org/1999/xlink" width="1000" height="363" viewBox="0 0 1000 363"><g transform="matrix(1,0,0,1,-0.6056348047761162,-0.38403012302995876)"><svg viewBox="0 0 396 144" data-background-color="#ffffff" preserveAspectRatio="xMidYMid meet" height="363" width="1000" xmlns="http://www.w3.org/2000/svg" xmlns:xlink="http://www.w3.org/1999/xlink"><g id="tight-bounds" transform="matrix(1,0,0,1,0.24008861730862918,0.15234252814411775)"><svg viewBox="0 0 395.52 143.69521754964862" height="143.69521754964862" width="395.52"><g><svg viewBox="0 0 395.52 143.69521754964862" height="143.69521754964862" width="395.52"><g><svg viewBox="0 0 395.52 143.69521754964862" height="143.69521754964862" width="395.52"><g id="textblocktransform"><svg viewBox="0 0 395.52 143.69521754964862" height="143.69521754964862" width="395.52" id="textblock"><g><svg viewBox="0 0 395.52 143.69521754964862" height="143.69521754964862" width="395.52"><path d="M394.594 30.82C392.735 15.904 387.435 11.758 387.435 11.758 371.165-3.605 350.86-0.294 332.619 1.914 300.414 2.003 268.339 5.285 236.208 7.045 168.767 7.313 100.749 2.898 33.643 13.786 27.339 17.127-6.54 14.443 1.121 32.729 3.129 40.336 10.456 48.778 10.232 55.759 11.236 56.982 12.631 54.178 13.226 55.938 15.309 60.681 18.711 58.443 21.501 61.248 17.614 68.735 20.403 74.97 23.062 81.503 18.377 83.203 12.371 82.398 9.675 88.036 9.396 92.123 7.89 91.347 6.235 91.168 5.026 91.049 2.59 91.496 2.999 92.779 4.394 97.164-1.594 99.7 2.162 103.995-0.422 108.649 3.948 112.676 3.353 117.718 3.278 118.732 3.687 119.597 4.338 119.836 7.22 121.118 3.018 123.624 3.464 126.339 33.029 144.894 65.104 132.066 95.394 140.598 103.259 134.632 97.346 142.716 100.489 141.463 102.943 140.001 104.728 146.057 107.499 142.627 107.927 141.642 107.276 139.315 108.8 139.763 109.6 140.001 110.307 139.942 110.418 138.57 110.586 136.511 109.117 137.794 108.726 136.72 112.947 131.291 111.906 144.208 115.866 143.671 115.68 142.09 114.528 139.822 116.889 140.121 119.232 137.854 119.306 135.974 121.389 141.075 121.463 142.179 121.835 142.955 122.43 143.492 128.938 137.943 135.409 145.461 142.233 142.955 146.417 140.21 150.433 144.446 154.672 143.402 156.16 142.567 157.666 141.075 159.098 143.581 176.632 144.118 195.319 141.881 211.943 143.671 256.364 140.33 303.835 145.043 350.674 140.628 361.719 138.928 373.192 136.511 383.958 134.572 383.958 134.572 392.679 129.262 392.679 105.397S394.538 84.516 394.817 65.513C395.096 46.511 396.398 45.735 394.538 30.82Z" opacity="1" fill="#0080ff"></path><g transform="matrix(1,0,0,1,55.76832,26.230666666666668)"><svg width="283.98335999999995" viewBox="2.9000000953674316 -35 109.08999633789062 35.04999923706055" height="91.23388421631527" data-palette-color="#ffffff"><path d="M14.5 0L9.85 0 9.85-30.35 2.9-30.35 2.9-35 21.45-35 21.45-30.35 14.5-30.35 14.5 0ZM25.1 0.05L20.45 0.05 27.5-34.95 32.05-34.95 39 0.05 34.35 0.05 33-6.5 26.35-6.5 25.1 0.05ZM29.8-23.55L27.25-11.1 32.2-11.1 29.8-23.55ZM58.8 0L42.2 0 42.2-35 46.84-35 46.84-4.65 58.8-4.65 58.8 0ZM66.44 0L61.79 0 61.79-35 66.44-35 66.44-11.65 75.69-35 80.34-35 73.39-17.5 80.34 0 75.69 0 71.09-11.65 66.44 0ZM89.69 0L85.04 0 85.04-35 89.69-35 89.69 0ZM111.99 0L93.39 0 93.39-35 111.99-35 111.99-30.4 98.04-30.4 98.04-21.7 107.34-21.7 106.29-17.05 98.04-17.05 98.04-4.65 111.99-4.65 111.99 0Z" opacity="1" transform="matrix(1,0,0,1,0,0)" fill="#ffffff" class="wordmark-text-0" id="text-0"></path></svg></g></svg></g></svg></g></svg></g><g></g></svg></g><defs></defs></svg><rect width="395.52" height="143.69521754964862" fill="none" stroke="none" visibility="hidden"></rect></g></svg></g></svg>